<svg xmlns="http://www.w3.org/2000/svg" viewBox="0 0 512 512" role="img" aria-label="Wantex">
  <defs>
    <linearGradient id="wantex-bg" x1="0%" y1="0%" x2="100%" y2="100%">
      <stop offset="0%" stop-color="#4A1942"/>
      <stop offset="55%" stop-color="#831843"/>
      <stop offset="100%" stop-color="#BE185D"/>
    </linearGradient>
    <linearGradient id="wantex-thread" x1="0%" y1="0%" x2="100%" y2="100%">
      <stop offset="0%" stop-color="#FDF2F8"/>
      <stop offset="100%" stop-color="#F9A8D4"/>
    </linearGradient>
    <linearGradient id="wantex-needle" x1="0%" y1="0%" x2="0%" y2="100%">
      <stop offset="0%" stop-color="#FBCFE8"/>
      <stop offset="100%" stop-color="#E2E8F0"/>
    </linearGradient>
  </defs>
  <rect width="512" height="512" rx="96" fill="url(#wantex-bg)"/>
  <g opacity="0.1" stroke="#FFFFFF" stroke-width="3">
    <line x1="80" y1="0" x2="80" y2="512"/>
    <line x1="160" y1="0" x2="160" y2="512"/>
    <line x1="240" y1="0" x2="240" y2="512"/>
    <line x1="320" y1="0" x2="320" y2="512"/>
    <line x1="400" y1="0" x2="400" y2="512"/>
    <line x1="0" y1="100" x2="512" y2="100"/>
    <line x1="0" y1="200" x2="512" y2="200"/>
    <line x1="0" y1="300" x2="512" y2="300"/>
    <line x1="0" y1="400" x2="512" y2="400"/>
  </g>
  <path d="M108 340 C132 220 148 300 168 240 C188 180 204 260 228 200 C252 140 268 220 292 180 C316 140 332 200 356 160" fill="none" stroke="url(#wantex-thread)" stroke-width="14" stroke-linecap="round" stroke-linejoin="round"/>
  <line x1="350" y1="120" x2="292" y2="360" stroke="url(#wantex-needle)" stroke-width="7" stroke-linecap="round"/>
  <ellipse cx="356" cy="112" rx="10" ry="18" fill="#F9A8D4" transform="rotate(28 356 112)"/>
  <circle cx="356" cy="112" r="5" fill="#831843"/>
  <ellipse cx="256" cy="390" rx="72" ry="22" fill="#4A1942" opacity="0.45"/>
  <ellipse cx="256" cy="378" rx="52" ry="16" fill="#9D174D" opacity="0.55"/>
  <text x="256" y="318" text-anchor="middle" fill="#FFFFFF" font-family="Georgia, 'Times New Roman', serif" font-size="148" font-weight="700">W</text>
</svg>
